<svg width="40" height="40" viewBox="0 0 40 40" fill="none" xmlns="http://www.w3.org/2000/svg">
<g clip-path="url(#clip0_49_448)">
<path d="M32.0003 20.0058C32.0003 21.1084 31.5531 22.1064 30.829 22.8282C30.105 23.5507 29.105 23.9978 28.0003 23.9978C26.8955 23.9978 25.8954 24.4441 25.1722 25.1666C24.4483 25.8893 24.0003 26.8873 24.0003 27.9899C24.0003 29.0924 23.553 30.0905 22.829 30.8123C22.105 31.5348 21.105 31.982 20.0001 31.982C18.8954 31.982 17.8954 31.5348 17.1722 30.8123C16.4481 30.0905 16.0001 29.0924 16.0001 27.9899C16.0001 26.8873 16.4481 25.8893 17.1722 25.1666C17.8954 24.4441 18.8954 23.9978 20.0001 23.9978C21.105 23.9978 22.105 23.5507 22.829 22.8282C23.553 22.1064 24.0003 21.1084 24.0003 20.0058C24.0003 17.8006 22.2098 16.0137 20.0001 16.0137C18.8954 16.0137 17.8954 15.5666 17.1722 14.8441C16.4481 14.1223 16.0001 13.1243 16.0001 12.0217C16.0001 10.9191 16.4481 9.92107 17.1722 9.1985C17.8954 8.47594 18.8954 8.02963 20.0001 8.02963C22.2098 8.02963 24.0003 9.81648 24.0003 12.0217C24.0003 13.1243 24.4483 14.1223 25.1722 14.8441C25.8954 15.5666 26.8955 16.0137 28.0003 16.0137C30.2098 16.0137 32.0003 17.8006 32.0003 20.0058Z" fill="#F44250"/>
<path d="M16.0001 20.0057C16.0001 17.801 14.2092 16.0137 12.0001 16.0137C9.79093 16.0137 8.00006 17.801 8.00006 20.0057C8.00006 22.2105 9.79093 23.9978 12.0001 23.9978C14.2092 23.9978 16.0001 22.2105 16.0001 20.0057Z" fill="#121212"/>
<path d="M8.00007 27.9899C8.00007 25.7851 6.20919 23.9978 4.00003 23.9978C1.79087 23.9978 0 25.7851 0 27.9899C0 30.1946 1.79087 31.9819 4.00003 31.9819C6.20919 31.9819 8.00007 30.1946 8.00007 27.9899Z" fill="#121212"/>
<path d="M40.0002 27.9899C40.0002 25.7851 38.2095 23.9978 36.0002 23.9978C33.7911 23.9978 32.0002 25.7851 32.0002 27.9899C32.0002 30.1946 33.7911 31.9819 36.0002 31.9819C38.2095 31.9819 40.0002 30.1946 40.0002 27.9899Z" fill="#121212"/>
</g>
<defs>
<clipPath id="clip0_49_448">
<rect width="40" height="40" fill="white"/>
</clipPath>
</defs>
</svg>
